<svg width="35" height="43" viewBox="0 0 35 43" fill="none" xmlns="http://www.w3.org/2000/svg">
<path fill-rule="evenodd" clip-rule="evenodd" d="M7 9H20C23.866 9 27 12.134 27 16V36C27 39.866 23.866 43 20 43H7C3.13401 43 0 39.866 0 36V16C0 12.134 3.13401 9 7 9ZM7 13C5.34315 13 4 14.3431 4 16V36C4 37.6569 5.34315 39 7 39H20C21.6569 39 23 37.6569 23 36V16C23 14.3431 21.6569 13 20 13H7Z" fill="white"/>
<path fill-rule="evenodd" clip-rule="evenodd" d="M28 0H15C11.134 0 8 3.13401 8 7H12C12 5.34315 13.3431 4 15 4H28C29.6569 4 31 5.34315 31 7V27C31 28.3062 30.1651 29.4175 28.9999 29.8293V33.9291C32.3923 33.4439 35 30.5265 35 27V7C35 3.13401 31.866 0 28 0Z" fill="white"/>
</svg>
