<svg width="70" height="70" viewBox="0 0 70 70" fill="none" xmlns="http://www.w3.org/2000/svg">
<path fill-rule="evenodd" clip-rule="evenodd" d="M0 10C0 4.47715 4.47715 0 10 0H59.1528C64.6757 0 69.1528 4.47715 69.1528 10V59.1528C69.1528 64.6757 64.6757 69.1528 59.1528 69.1528H10C4.47715 69.1528 0 64.6757 0 59.1528V10ZM17.652 47.9971C20.0253 47.9971 21.9492 49.9211 21.9492 52.2944C21.9492 54.6677 20.0253 56.5917 17.652 56.5917C15.2786 56.5917 13.3547 54.6677 13.3547 52.2944C13.3547 49.9211 15.2786 47.9971 17.652 47.9971ZM21.9492 35.1052C21.9492 32.7319 20.0253 30.808 17.652 30.808C15.2786 30.808 13.3547 32.7319 13.3547 35.1052C13.3547 37.4785 15.2786 39.4025 17.652 39.4025C20.0253 39.4025 21.9492 37.4785 21.9492 35.1052ZM17.652 13.619C20.0253 13.619 21.9492 15.5429 21.9492 17.9162C21.9492 20.2895 20.0253 22.2135 17.652 22.2135C15.2786 22.2135 13.3547 20.2895 13.3547 17.9162C13.3547 15.5429 15.2786 13.619 17.652 13.619ZM29.2876 13.6191C26.8413 13.6191 24.8581 15.6022 24.8581 18.0486C24.8581 20.4949 26.8413 22.4781 29.2876 22.4781H52.1623C54.6086 22.4781 56.5917 20.4949 56.5917 18.0486C56.5917 15.6022 54.6086 13.6191 52.1623 13.6191H29.2876ZM24.8581 35.2376C24.8581 32.7912 26.8413 30.8081 29.2876 30.8081H52.1623C54.6086 30.8081 56.5917 32.7912 56.5917 35.2376C56.5917 37.6839 54.6086 39.667 52.1623 39.667H29.2876C26.8413 39.667 24.8581 37.6839 24.8581 35.2376ZM29.2876 47.9971C26.8413 47.9971 24.8581 49.9802 24.8581 52.4266C24.8581 54.8729 26.8413 56.856 29.2876 56.856H52.1623C54.6086 56.856 56.5917 54.8729 56.5917 52.4266C56.5917 49.9802 54.6086 47.9971 52.1623 47.9971H29.2876Z" fill="white"/>
</svg>
