<svg width="28" height="28" viewBox="0 0 28 28" fill="none" xmlns="http://www.w3.org/2000/svg">
<path d="M5.83333 25.6667C5.19167 25.6667 4.64256 25.4384 4.186 24.9818C3.72944 24.5253 3.50078 23.9758 3.5 23.3333V7C3.5 6.35833 3.72867 5.80922 4.186 5.35267C4.64333 4.89611 5.19244 4.66744 5.83333 4.66667H7V3.5C7 3.16944 7.112 2.89255 7.336 2.66933C7.56 2.44611 7.83689 2.33411 8.16667 2.33333C8.49644 2.33255 8.77372 2.44455 8.9985 2.66933C9.22328 2.89411 9.33489 3.171 9.33333 3.5V4.66667H18.6667V3.5C18.6667 3.16944 18.7787 2.89255 19.0027 2.66933C19.2267 2.44611 19.5036 2.33411 19.8333 2.33333C20.1631 2.33255 20.4404 2.44455 20.6652 2.66933C20.8899 2.89411 21.0016 3.171 21 3.5V4.66667H22.1667C22.8083 4.66667 23.3578 4.89533 23.8152 5.35267C24.2725 5.81 24.5008 6.35911 24.5 7V23.3333C24.5 23.975 24.2717 24.5245 23.8152 24.9818C23.3586 25.4392 22.8091 25.6674 22.1667 25.6667H5.83333ZM5.83333 23.3333H22.1667V11.6667H5.83333V23.3333ZM5.83333 9.33333H22.1667V7H5.83333V9.33333ZM14 16.3333C13.6694 16.3333 13.3926 16.2213 13.1693 15.9973C12.9461 15.7733 12.8341 15.4964 12.8333 15.1667C12.8326 14.8369 12.9446 14.56 13.1693 14.336C13.3941 14.112 13.671 14 14 14C14.329 14 14.6063 14.112 14.8318 14.336C15.0574 14.56 15.169 14.8369 15.1667 15.1667C15.1643 15.4964 15.0523 15.7737 14.8307 15.9985C14.609 16.2233 14.3321 16.3349 14 16.3333ZM9.33333 16.3333C9.00278 16.3333 8.72589 16.2213 8.50267 15.9973C8.27944 15.7733 8.16744 15.4964 8.16667 15.1667C8.16589 14.8369 8.27789 14.56 8.50267 14.336C8.72745 14.112 9.00433 14 9.33333 14C9.66233 14 9.93961 14.112 10.1652 14.336C10.3907 14.56 10.5023 14.8369 10.5 15.1667C10.4977 15.4964 10.3857 15.7737 10.164 15.9985C9.94233 16.2233 9.66544 16.3349 9.33333 16.3333ZM18.6667 16.3333C18.3361 16.3333 18.0592 16.2213 17.836 15.9973C17.6128 15.7733 17.5008 15.4964 17.5 15.1667C17.4992 14.8369 17.6112 14.56 17.836 14.336C18.0608 14.112 18.3377 14 18.6667 14C18.9957 14 19.2729 14.112 19.4985 14.336C19.7241 14.56 19.8357 14.8369 19.8333 15.1667C19.831 15.4964 19.719 15.7737 19.4973 15.9985C19.2757 16.2233 18.9988 16.3349 18.6667 16.3333ZM14 21C13.6694 21 13.3926 20.888 13.1693 20.664C12.9461 20.44 12.8341 20.1631 12.8333 19.8333C12.8326 19.5036 12.9446 19.2267 13.1693 19.0027C13.3941 18.7787 13.671 18.6667 14 18.6667C14.329 18.6667 14.6063 18.7787 14.8318 19.0027C15.0574 19.2267 15.169 19.5036 15.1667 19.8333C15.1643 20.1631 15.0523 20.4404 14.8307 20.6652C14.609 20.8899 14.3321 21.0016 14 21ZM9.33333 21C9.00278 21 8.72589 20.888 8.50267 20.664C8.27944 20.44 8.16744 20.1631 8.16667 19.8333C8.16589 19.5036 8.27789 19.2267 8.50267 19.0027C8.72745 18.7787 9.00433 18.6667 9.33333 18.6667C9.66233 18.6667 9.93961 18.7787 10.1652 19.0027C10.3907 19.2267 10.5023 19.5036 10.5 19.8333C10.4977 20.1631 10.3857 20.4404 10.164 20.6652C9.94233 20.8899 9.66544 21.0016 9.33333 21ZM18.6667 21C18.3361 21 18.0592 20.888 17.836 20.664C17.6128 20.44 17.5008 20.1631 17.5 19.8333C17.4992 19.5036 17.6112 19.2267 17.836 19.0027C18.0608 18.7787 18.3377 18.6667 18.6667 18.6667C18.9957 18.6667 19.2729 18.7787 19.4985 19.0027C19.7241 19.2267 19.8357 19.5036 19.8333 19.8333C19.831 20.1631 19.719 20.4404 19.4973 20.6652C19.2757 20.8899 18.9988 21.0016 18.6667 21Z" fill="#D44757"/>
</svg>
