<svg width="28" height="28" viewBox="0 0 28 28" fill="none" xmlns="http://www.w3.org/2000/svg">
<path d="M4.66732 23.3333C4.02565 23.3333 3.47654 23.105 3.01998 22.6485C2.56343 22.1919 2.33476 21.6424 2.33398 21V6.99999C2.33398 6.35832 2.56265 5.80921 3.01998 5.35266C3.47732 4.8961 4.02643 4.66743 4.66732 4.66666H23.334C23.9757 4.66666 24.5252 4.89532 24.9825 5.35266C25.4398 5.80999 25.6681 6.3591 25.6673 6.99999V21C25.6673 21.6417 25.439 22.1912 24.9825 22.6485C24.5259 23.1058 23.9764 23.3341 23.334 23.3333H4.66732ZM5.83398 19.8333H22.1673V17.5H5.83398V19.8333ZM5.83398 15.1667H22.1673V12.8333H5.83398V15.1667ZM5.83398 10.5H17.5007V8.16666H5.83398V10.5Z" fill="#D44757"/>
</svg>
