<svg width="46" height="45" viewBox="0 0 46 45" fill="none" xmlns="http://www.w3.org/2000/svg">
<path d="M37.2076 10.9249H32.0858C30.1256 10.9249 28.45 11.605 27.0589 12.9652C25.731 14.3254 25.0671 15.9638 25.0671 17.8804V22.7956H20.9886V28.731H25.0671V42.5493H31.1373V28.731H37.2076V22.7956H31.1373V18.8078C31.1373 18.3132 31.327 17.8804 31.7064 17.5094C32.0858 17.0767 32.56 16.8603 33.1291 16.8603H37.2076V10.9249ZM2.77783 4.04199C2.77783 3.48971 3.22555 3.04199 3.77783 3.04199H42.2778C42.8301 3.04199 43.2778 3.48971 43.2778 4.04199V41.5493C43.2778 42.1015 42.8301 42.5493 42.2778 42.5493H3.77783C3.22555 42.5493 2.77783 42.1015 2.77783 41.5493V4.04199Z" fill="white"/>
</svg>
