<svg width="28" height="28" viewBox="0 0 28 28" fill="none" xmlns="http://www.w3.org/2000/svg">
<path d="M13.9993 24.8792C13.7271 24.8792 13.4549 24.8306 13.1827 24.7333C12.9105 24.6361 12.6674 24.4903 12.4535 24.2958C11.1896 23.1292 10.0716 21.9917 9.09935 20.8833C8.12713 19.775 7.31552 18.7009 6.66452 17.661C6.01352 16.6211 5.51768 15.6197 5.17702 14.6568C4.83635 13.694 4.66602 12.775 4.66602 11.9C4.66602 8.98334 5.6044 6.65973 7.48118 4.92918C9.35796 3.19862 11.5307 2.33334 13.9993 2.33334C16.468 2.33334 18.6411 3.19862 20.5187 4.92918C22.3962 6.65973 23.3342 8.98334 23.3327 11.9C23.3327 12.775 23.1627 13.694 22.8228 14.6568C22.483 15.6197 21.9871 16.6211 21.3353 17.661C20.6836 18.7009 19.8716 19.775 18.8993 20.8833C17.9271 21.9917 16.8091 23.1292 15.5452 24.2958C15.3313 24.4903 15.0882 24.6361 14.816 24.7333C14.5438 24.8306 14.2716 24.8792 13.9993 24.8792ZM13.9993 14C14.641 14 15.1905 13.7717 15.6478 13.3152C16.1052 12.8586 16.3335 12.3091 16.3327 11.6667C16.3319 11.0242 16.1036 10.4751 15.6478 10.0193C15.1921 9.56357 14.6426 9.3349 13.9993 9.33334C13.3561 9.33179 12.807 9.56045 12.352 10.0193C11.897 10.4782 11.6683 11.0273 11.666 11.6667C11.6637 12.306 11.8923 12.8555 12.352 13.3152C12.8117 13.7748 13.3608 14.0031 13.9993 14Z" fill="#D44757"/>
</svg>
