<svg width="28" height="28" viewBox="0 0 28 28" fill="none" xmlns="http://www.w3.org/2000/svg">
<path d="M13.9993 14C12.716 14 11.6174 13.5431 10.7035 12.6292C9.78963 11.7153 9.33268 10.6167 9.33268 9.33333C9.33268 8.05 9.78963 6.95139 10.7035 6.0375C11.6174 5.12361 12.716 4.66666 13.9993 4.66666C15.2827 4.66666 16.3813 5.12361 17.2952 6.0375C18.2091 6.95139 18.666 8.05 18.666 9.33333C18.666 10.6167 18.2091 11.7153 17.2952 12.6292C16.3813 13.5431 15.2827 14 13.9993 14ZM4.66602 23.3333V20.0667C4.66602 19.4056 4.83635 18.7981 5.17702 18.2443C5.51768 17.6906 5.96957 17.2674 6.53268 16.975C7.73824 16.3722 8.96324 15.9203 10.2077 15.6193C11.4521 15.3183 12.716 15.1674 13.9993 15.1667C15.2827 15.1659 16.5466 15.3168 17.791 15.6193C19.0355 15.9219 20.2605 16.3738 21.466 16.975C22.0299 17.2667 22.4822 17.6898 22.8228 18.2443C23.1635 18.7989 23.3335 19.4063 23.3327 20.0667V23.3333H4.66602Z" fill="#D44757"/>
</svg>
